<svg xmlns="http://www.w3.org/2000/svg"><style>:root svg:not(:target){display:none}</style><svg fill="none" id="arrow" viewBox="0 0 12 22"><path d="m1 1 10 10L1 21" stroke="#102654"/></svg><svg fill="none" id="close" viewBox="0 0 20 20"><path d="M.293 18.291a1 1 0 1 0 1.414 1.414L10 11.413l8.292 8.292a1 1 0 1 0 1.414-1.414l-8.292-8.292 8.292-8.292A1 1 0 1 0 18.291.293L9.999 8.585 1.707.293A1 1 0 1 0 .293 1.707L8.585 10 .293 18.291z"/></svg><svg fill="none" id="logotype" viewBox="0 0 119 23"><path d="M5.768 22.252c-1.176 0-2.196-.18-3.06-.54-.864-.36-1.524-.996-1.98-1.908-.432-.912-.648-2.196-.648-3.852v-1.224h3.528v1.512c0 1.008.096 1.788.288 2.34.192.552.456.936.792 1.152.336.192.72.288 1.152.288.696 0 1.248-.228 1.656-.684.432-.48.648-1.368.648-2.664 0-.96-.144-1.68-.432-2.16-.288-.48-.744-.864-1.368-1.152-.6-.312-1.38-.66-2.34-1.044a9.005 9.005 0 0 1-2.052-1.26A4.416 4.416 0 0 1 .656 9.22C.368 8.476.224 7.552.224 6.448c0-1.344.168-2.436.504-3.276a3.44 3.44 0 0 1 1.8-1.872C3.368.892 4.496.688 5.912.688c1.824 0 3.216.42 4.176 1.26.96.816 1.44 2.016 1.44 3.6v2.484H8.144V6.556c0-1.104-.18-1.896-.54-2.376-.336-.504-.888-.756-1.656-.756-.792 0-1.368.24-1.728.72-.336.456-.504 1.188-.504 2.196 0 .864.168 1.536.504 2.016.336.456.768.816 1.296 1.08.552.264 1.116.504 1.692.72 1.08.408 1.956.828 2.628 1.26a3.822 3.822 0 0 1 1.476 1.728c.312.72.468 1.74.468 3.06 0 1.512-.252 2.712-.756 3.6a4.18 4.18 0 0 1-2.088 1.872c-.888.384-1.944.576-3.168.576Zm15.148.18c-.816 0-1.572-.06-2.268-.18-.696-.12-1.296-.36-1.8-.72s-.9-.9-1.188-1.62c-.288-.72-.432-1.692-.432-2.916V.724h3.456v17.172c0 .648.096 1.152.288 1.512.216.336.492.564.828.684.336.12.708.18 1.116.18.408 0 .78-.06 1.116-.18.336-.12.6-.348.792-.684.216-.36.324-.864.324-1.512V.724h3.42V16.96c0 1.224-.144 2.208-.432 2.952-.264.72-.648 1.26-1.152 1.62-.504.36-1.104.6-1.8.72s-1.452.18-2.268.18ZM30.822 22V.724h7.2c1.344 0 2.376.3 3.096.9.72.6 1.08 1.488 1.08 2.664v3.78c0 .912-.12 1.764-.36 2.556a3.426 3.426 0 0 1-1.296 1.872c-.624.48-1.536.72-2.736.72h-3.384V22h-3.6Zm3.6-10.728h2.196c.72 0 1.26-.276 1.62-.828.36-.576.54-1.5.54-2.772V5.764c0-1.128-.156-1.932-.468-2.412-.312-.48-.744-.72-1.296-.72h-2.592v8.64ZM45.605 22V.724h9.576v2.448h-5.976v6.444h4.931v2.7h-4.931v7.308h5.976V22h-9.576Zm12.848 0V.724h7.344c1.344 0 2.376.3 3.096.9.744.6 1.116 1.488 1.116 2.664v3.384c0 1.176-.324 2.136-.972 2.88-.648.72-1.608 1.116-2.88 1.188.816.072 1.392.336 1.728.792.36.456.684 1.164.972 2.124L70.91 22h-3.816l-1.692-7.092a10.03 10.03 0 0 0-.576-1.584c-.216-.456-.564-.684-1.044-.684h-1.764V22h-3.564Zm3.564-11.772h2.304c.84 0 1.428-.216 1.764-.648.36-.432.54-1.092.54-1.98V4.9c0-.792-.168-1.368-.504-1.728-.312-.36-.804-.54-1.476-.54h-2.628v7.596Zm16.596 12.168A6.64 6.64 0 0 1 76.31 22c-.72-.24-1.308-.732-1.764-1.476-.432-.768-.648-1.908-.648-3.42V5.224c0-1.296.24-2.28.72-2.952.48-.696 1.152-1.164 2.016-1.404.864-.264 1.86-.396 2.988-.396s2.124.132 2.988.396c.864.264 1.536.744 2.016 1.44.504.672.756 1.644.756 2.916v2.88h-3.348V5.08c0-.72-.108-1.26-.324-1.62-.192-.36-.468-.6-.828-.72-.336-.12-.744-.18-1.224-.18-.432 0-.828.06-1.188.18s-.648.36-.864.72c-.192.36-.288.9-.288 1.62v12.78c0 .72.096 1.26.288 1.62.216.36.504.6.864.72s.756.18 1.188.18c.696 0 1.26-.204 1.692-.612.456-.432.684-1.068.684-1.908v-4.32H79.91v-1.98h5.472V22H82.79l-.18-1.8a4.891 4.891 0 0 1-.18.324c-.072.096-.132.18-.18.252-.288.432-.72.816-1.296 1.152-.552.312-1.332.468-2.34.468ZM91.911 22v-9.144L87.951.724h3.42l2.232 7.272.18 1.116L94 7.996 96.34.724h3.204l-4.176 12.312V22h-3.456Zm10.538 0V.724h4.248l3.564 15.12 3.6-15.12h4.212V22h-3.06V5.584L111.449 22h-2.376l-3.564-16.416V22h-3.06Z" fill="#fff"/></svg><svg id="minus" viewBox="0 0 18 2"><path d="M18 1H0"/></svg><svg fill="none" id="not-needed-in-sprite" viewBox="0 0 16 16"><circle cx="8" cy="8" r="8" fill="#081597"/></svg><svg fill="none" id="ok" viewBox="0 0 14 22"><path d="M7 3.328c1.323 0 2.399 1.055 2.399 2.351 0 1.293-1.076 2.348-2.399 2.348S4.601 6.972 4.601 5.679c0-1.296 1.076-2.351 2.399-2.351Zm0 8.027c3.196 0 5.794-2.547 5.794-5.676C12.794 2.547 10.196 0 7 0 3.804 0 1.21 2.547 1.21 5.68c0 3.128 2.594 5.675 5.79 5.675Zm2.343 4.633a11.044 11.044 0 0 0 3.363-1.368 1.644 1.644 0 0 0 .534-2.292 1.715 1.715 0 0 0-2.343-.524 7.486 7.486 0 0 1-7.798 0 1.71 1.71 0 0 0-2.339.524 1.644 1.644 0 0 0 .534 2.292 11.044 11.044 0 0 0 3.363 1.368l-3.24 3.171a1.641 1.641 0 0 0 0 2.352 1.727 1.727 0 0 0 2.403 0L7 18.394l3.184 3.117a1.715 1.715 0 0 0 2.399 0 1.641 1.641 0 0 0 0-2.352l-3.24-3.171Z" fill="#030A1A"/></svg><svg fill="none" id="play-button" viewBox="0 0 14 16"><path d="m13.5 8-13 7.5V.5l13 7.5Z" fill="#102654"/></svg><svg fill="none" id="plus" viewBox="0 0 20 20"><path d="M10 0v10m0 10V10m0 0h10m-10 0H0" stroke="#102654"/></svg><svg fill="none" id="reddit" viewBox="0 0 20 22"><path d="M11.945.5c-.641 0-1.243.342-1.629.834-.386.493-.599 1.093-.754 1.726-.246 1.018-.322 2.147-.34 3.165-1.803.126-3.435.686-4.79 1.553-.55-.485-1.213-.755-1.848-.748-.724.007-1.41.335-1.921 1.007-.976 1.284-.864 3.384.267 4.631-.07.385-.122.78-.122 1.18C.808 18.077 4.924 21.5 10 21.5c5.076 0 9.192-3.427 9.192-7.652 0-.4-.052-.795-.122-1.18 1.13-1.247 1.243-3.347.267-4.631-.51-.672-1.197-1-1.92-1.007-.636-.007-1.298.263-1.849.748-1.35-.863-2.972-1.424-4.766-1.553.025-.939.089-1.913.268-2.647.112-.46.246-.795.389-.978.143-.183.246-.259.486-.259.52 0 .587.176.9.604.158.216.34.486.632.748.292.263.724.49 1.192.49V2.34c-.131 0-.155-.004-.243-.086-.089-.083-.21-.273-.39-.518C13.678 1.244 12.982.5 11.947.5Zm5.058.173c-1.21 0-2.188 1.157-2.188 2.589 0 1.43.978 2.589 2.188 2.589 1.21 0 2.189-1.158 2.189-2.59 0-1.43-.98-2.588-2.189-2.588Zm0 .92c.778 0 1.41.748 1.41 1.669 0 .92-.632 1.668-1.41 1.668-.778 0-1.41-.748-1.41-1.668 0-.92.632-1.669 1.41-1.669ZM10 7.663c4.307 0 7.951 2.837 7.951 6.185 0 3.351-3.644 6.185-7.951 6.185-4.307 0-7.951-2.834-7.951-6.185 0-3.348 3.644-6.185 7.951-6.185Zm-7.392.834c.216.004.44.061.656.173-.78.701-1.4 1.507-1.823 2.416-.292-.712-.213-1.6.146-2.07a1.241 1.241 0 0 1 1.02-.519Zm14.784 0c.398-.003.76.173 1.021.518.36.471.438 1.36.146 2.071-.422-.91-1.042-1.715-1.823-2.416a1.49 1.49 0 0 1 .656-.173ZM6.888 10.8c-.779 0-1.41.748-1.41 1.668 0 .92.631 1.669 1.41 1.669.778 0 1.41-.748 1.41-1.669 0-.92-.632-1.668-1.41-1.668Zm6.225 0c-.779 0-1.41.748-1.41 1.668 0 .92.631 1.669 1.41 1.669.778 0 1.41-.748 1.41-1.669 0-.92-.632-1.668-1.41-1.668Zm-6.98 5.667c.496 1.212 2.028 2.387 3.867 2.387s3.395-1.175 3.89-2.387c-.9.687-2.319 1.15-3.89 1.15-1.571 0-2.967-.463-3.866-1.15Z" fill="#030A1A"/></svg><svg fill="none" id="rubble" viewBox="0 0 14 20"><path fill-rule="evenodd" clip-rule="evenodd" d="M1.867 13.486v-5.39h2.8v5.39H9.8v2.857H4.667V20h-2.8v-3.657H0v-2.857h1.867Z" fill="#102654"/><path fill-rule="evenodd" clip-rule="evenodd" d="M8.633 2.857H4.667v5.238h3.966c1.418 0 2.567-1.172 2.567-2.619 0-1.446-1.15-2.619-2.567-2.619ZM1.867 0v10.952h6.766c2.964 0 5.367-2.451 5.367-5.476C14 2.452 11.597 0 8.633 0H1.867Z" fill="#102654"/><path d="M1.867 8.095H0v2.857h1.867V8.095Z" fill="#102654"/></svg><svg fill="none" id="video-button" viewBox="0 0 100 100"><circle cx="50" cy="50" r="49" stroke="url(#video-button_0)" stroke-opacity=".2" stroke-width="2"/><circle cx="50" cy="50" r="36" fill="url(#video-button_1)"/><path d="m59 49.5-12.75 7.361V42.14L59 49.5Z" fill="#fff"/><defs><linearGradient id="video-button_0" x1="19.774" y1="0" x2="105.785" y2="10.644" gradientUnits="userSpaceOnUse"><stop stop-color="#ED0233"/><stop offset="1" stop-color="#003EB7"/></linearGradient><linearGradient id="video-button_1" x1="14" y1="49.52" x2="54.186" y2="9.184" gradientUnits="userSpaceOnUse"><stop stop-color="#003D85"/><stop offset=".885" stop-color="#B80027"/></linearGradient></defs></svg><svg fill="none" id="vk" viewBox="0 0 22 12"><path d="M21.804 10.703c-.06-.094-.425-.854-2.185-2.416-1.843-1.635-1.595-1.37.624-4.197 1.352-1.722 1.892-2.774 1.723-3.224-.16-.428-1.155-.315-1.155-.315l-3.306.018s-.244-.031-.427.073c-.178.102-.292.339-.292.339s-.524 1.333-1.222 2.466C14.09 5.838 13.5 5.964 13.26 5.816c-.56-.346-.419-1.391-.419-2.132 0-2.318.367-3.284-.716-3.534-.36-.083-.625-.138-1.545-.147C9.4-.01 8.4.007 7.836.27c-.377.176-.667.57-.49.591.219.028.714.128.976.47.34.44.328 1.431.328 1.431s.195 2.728-.455 3.067c-.447.233-1.06-.242-2.373-2.412-.672-1.11-1.18-2.34-1.18-2.34S4.543.85 4.368.728C4.157.577 3.86.53 3.86.53L.717.55S.245.563.072.759c-.154.174-.013.535-.013.535s2.462 5.504 5.248 8.279c2.556 2.543 5.458 2.376 5.458 2.376h1.314s.398-.042.6-.25c.187-.193.18-.553.18-.553s-.026-1.686.793-1.935c.808-.244 1.844 1.63 2.943 2.352.83.545 1.462.426 1.462.426l2.938-.04s1.538-.09.809-1.246Z" fill="#030A1A"/></svg></svg>