<svg xmlns="http://www.w3.org/2000/svg" xmlns:xlink="http://www.w3.org/1999/xlink"><defs><linearGradient id="paint0_linear_1_293" x1="19.774" y1="3.00672e-05" x2="105.785" y2="10.6444" gradientUnits="userSpaceOnUse"><stop stop-color="#ED0233"/><stop offset="1" stop-color="#003EB7"/></linearGradient><linearGradient id="paint1_linear_1_293" x1="14" y1="49.52" x2="54.1858" y2="9.18415" gradientUnits="userSpaceOnUse"><stop stop-color="#003D85"/><stop offset="0.885417" stop-color="#B80027"/></linearGradient></defs><symbol id="arrow" viewBox="0 0 12 22"><g fill="none"><path d="M1 1L11 11L1 21" stroke="#102654"/></g></symbol><symbol id="close" viewBox="0 0 20 20"><g fill="none"><path d="M.293 18.291a1 1 0 101.414 1.414L10 11.413l8.292 8.292a1 1 0 101.414-1.414l-8.292-8.292 8.292-8.292A1 1 0 1018.291.293L9.999 8.585 1.707.293A1 1 0 10.293 1.707L8.585 10 .293 18.291z"/></g></symbol><symbol id="logotype" viewBox="0 0 119 23"><g fill="none"><path d="M5.768 22.252C4.592 22.252 3.572 22.072 2.708 21.712C1.844 21.352 1.184 20.716 0.728 19.804C0.296 18.892 0.08 17.608 0.08 15.952V14.728C0.656 14.728 1.244 14.728 1.844 14.728C2.444 14.728 3.032 14.728 3.608 14.728V16.24C3.608 17.248 3.704 18.028 3.896 18.58C4.088 19.132 4.352 19.516 4.688 19.732C5.024 19.924 5.408 20.02 5.84 20.02C6.536 20.02 7.088 19.792 7.496 19.336C7.928 18.856 8.144 17.968 8.144 16.672C8.144 15.712 8 14.992 7.712 14.512C7.424 14.032 6.968 13.648 6.344 13.36C5.744 13.048 4.964 12.7 4.004 12.316C3.212 11.956 2.528 11.536 1.952 11.056C1.376 10.576 0.944 9.964 0.656 9.22C0.368 8.476 0.224 7.552 0.224 6.448C0.224 5.104 0.392 4.012 0.728 3.172C1.088 2.308 1.688 1.684 2.528 1.3C3.368 0.891999 4.496 0.688 5.912 0.688C7.736 0.688 9.128 1.108 10.088 1.948C11.048 2.764 11.528 3.964 11.528 5.548V8.032C10.976 8.032 10.412 8.032 9.836 8.032C9.284 8.032 8.72 8.032 8.144 8.032V6.556C8.144 5.452 7.964 4.66 7.604 4.18C7.268 3.676 6.716 3.424 5.948 3.424C5.156 3.424 4.58 3.664 4.22 4.144C3.884 4.6 3.716 5.332 3.716 6.34C3.716 7.204 3.884 7.876 4.22 8.356C4.556 8.812 4.988 9.172 5.516 9.436C6.068 9.7 6.632 9.94 7.208 10.156C8.288 10.564 9.164 10.984 9.836 11.416C10.508 11.848 11 12.424 11.312 13.144C11.624 13.864 11.78 14.884 11.78 16.204C11.78 17.716 11.528 18.916 11.024 19.804C10.544 20.668 9.848 21.292 8.936 21.676C8.048 22.06 6.992 22.252 5.768 22.252ZM20.9164 22.432C20.1004 22.432 19.3444 22.372 18.6484 22.252C17.9524 22.132 17.3524 21.892 16.8484 21.532C16.3444 21.172 15.9484 20.632 15.6604 19.912C15.3724 19.192 15.2284 18.22 15.2284 16.996V0.723999H18.6844V17.896C18.6844 18.544 18.7804 19.048 18.9724 19.408C19.1884 19.744 19.4644 19.972 19.8004 20.092C20.1364 20.212 20.5084 20.272 20.9164 20.272C21.3244 20.272 21.6964 20.212 22.0324 20.092C22.3684 19.972 22.6324 19.744 22.8244 19.408C23.0404 19.048 23.1484 18.544 23.1484 17.896V0.723999H26.5684V16.96C26.5684 18.184 26.4244 19.168 26.1364 19.912C25.8724 20.632 25.4884 21.172 24.9844 21.532C24.4804 21.892 23.8804 22.132 23.1844 22.252C22.4884 22.372 21.7324 22.432 20.9164 22.432ZM30.822 22V0.723999H38.022C39.366 0.723999 40.398 1.024 41.118 1.624C41.838 2.224 42.198 3.112 42.198 4.288V8.068C42.198 8.98 42.078 9.832 41.838 10.624C41.622 11.392 41.19 12.016 40.542 12.496C39.918 12.976 39.006 13.216 37.806 13.216H34.422V22H30.822ZM34.422 11.272H36.618C37.338 11.272 37.878 10.996 38.238 10.444C38.598 9.868 38.778 8.944 38.778 7.672V5.764C38.778 4.636 38.622 3.832 38.31 3.352C37.998 2.872 37.566 2.632 37.014 2.632H34.422V11.272ZM45.6045 22V0.723999H55.1805V3.172H49.2045V9.616H54.1365V12.316H49.2045V19.624H55.1805V22H45.6045ZM58.4534 22V0.723999H65.7974C67.1414 0.723999 68.1734 1.024 68.8934 1.624C69.6374 2.224 70.0094 3.112 70.0094 4.288V7.672C70.0094 8.848 69.6854 9.808 69.0374 10.552C68.3894 11.272 67.4294 11.668 66.1574 11.74C66.9734 11.812 67.5494 12.076 67.8854 12.532C68.2454 12.988 68.5694 13.696 68.8574 14.656L70.9094 22H67.0934L65.4014 14.908C65.2334 14.308 65.0414 13.78 64.8254 13.324C64.6094 12.868 64.2614 12.64 63.7814 12.64H62.0174V22H58.4534ZM62.0174 10.228H64.3214C65.1614 10.228 65.7494 10.012 66.0854 9.58C66.4454 9.148 66.6254 8.488 66.6254 7.6V4.9C66.6254 4.108 66.4574 3.532 66.1214 3.172C65.8094 2.812 65.3174 2.632 64.6454 2.632H62.0174V10.228ZM78.6132 22.396C77.7972 22.396 77.0292 22.264 76.3092 22C75.5892 21.76 75.0012 21.268 74.5452 20.524C74.1132 19.756 73.8972 18.616 73.8972 17.104V5.224C73.8972 3.928 74.1372 2.944 74.6172 2.272C75.0972 1.576 75.7692 1.108 76.6332 0.868C77.4972 0.603999 78.4932 0.471998 79.6212 0.471998C80.7492 0.471998 81.7452 0.603999 82.6092 0.868C83.4732 1.132 84.1452 1.612 84.6252 2.308C85.1292 2.98 85.3812 3.952 85.3812 5.224V8.104H82.0332V5.08C82.0332 4.36 81.9252 3.82 81.7092 3.46C81.5172 3.1 81.2412 2.86 80.8812 2.74C80.5452 2.62 80.1372 2.56 79.6572 2.56C79.2252 2.56 78.8292 2.62 78.4692 2.74C78.1092 2.86 77.8212 3.1 77.6052 3.46C77.4132 3.82 77.3172 4.36 77.3172 5.08V17.86C77.3172 18.58 77.4132 19.12 77.6052 19.48C77.8212 19.84 78.1092 20.08 78.4692 20.2C78.8292 20.32 79.2252 20.38 79.6572 20.38C80.3532 20.38 80.9172 20.176 81.3492 19.768C81.8052 19.336 82.0332 18.7 82.0332 17.86V13.54H79.9092V11.56H85.3812V22H82.7892L82.6092 20.2C82.5612 20.296 82.5012 20.404 82.4292 20.524C82.3572 20.62 82.2972 20.704 82.2492 20.776C81.9612 21.208 81.5292 21.592 80.9532 21.928C80.4012 22.24 79.6212 22.396 78.6132 22.396ZM91.9112 22V12.856L87.9512 0.723999H91.3712L93.6032 7.996L93.7832 9.112L93.9992 7.996L96.3392 0.723999H99.5432L95.3672 13.036V22H91.9112ZM102.449 22V0.723999H106.697L110.261 15.844L113.861 0.723999H118.073V22H115.013V5.584L111.449 22H109.073L105.509 5.584V22H102.449Z" fill="white"/></g></symbol><symbol id="minus" viewBox="0 0 18 2"><g fill="none"><path d="M18 1H9H0" stroke="white"/></g></symbol><symbol id="not-needed-in-sprite" viewBox="0 0 16 16"><g fill="none"><circle cx="8" cy="8" r="8" fill="#081597"/></g></symbol><symbol id="ok" viewBox="0 0 14 22"><g fill="none"><path d="M7 3.32798C8.32292 3.32798 9.39879 4.38262 9.39879 5.67944C9.39879 6.97235 8.32292 8.02699 7 8.02699C5.67708 8.02699 4.60121 6.97235 4.60121 5.67944C4.60121 4.38262 5.67708 3.32798 7 3.32798ZM7 11.355C10.1957 11.355 12.7938 8.8082 12.7938 5.67944C12.7938 2.54676 10.1957 0 7 0C3.80427 0 1.21023 2.54676 1.21023 5.67944C1.21023 8.8082 3.80427 11.355 7 11.355ZM9.343 15.9876C10.5225 15.722 11.6581 15.2649 12.7061 14.6204C13.499 14.1322 13.7381 13.1049 13.24 12.3276C12.738 11.5464 11.694 11.312 10.897 11.8042C8.52614 13.265 5.47386 13.265 3.09898 11.8042C2.30603 11.312 1.25805 11.5464 0.759964 12.3276C0.261876 13.1049 0.500958 14.1322 1.29391 14.6204C2.34189 15.2649 3.47753 15.722 4.657 15.9876L1.41744 19.1593C0.755978 19.8077 0.755978 20.8624 1.41744 21.5108C1.75215 21.835 2.1825 21.999 2.61683 21.999C3.05116 21.999 3.4855 21.835 3.82021 21.5108L7 18.3937L10.1838 21.5108C10.8452 22.1631 11.9171 22.1631 12.5826 21.5108C13.244 20.8624 13.244 19.8077 12.5826 19.1593L9.343 15.9876Z" fill="#030A1A"/></g></symbol><symbol id="play-button" viewBox="0 0 14 16"><g fill="none"><path d="M13.5 8L0.5 15.5L0.500001 0.5L13.5 8Z" fill="#102654"/></g></symbol><symbol id="plus" viewBox="0 0 20 20"><g fill="none"><path d="M10 0V10M10 20V10M10 10H20M10 10H0" stroke="#102654"/></g></symbol><symbol id="reddit" viewBox="0 0 20 22"><g fill="none"><path d="M11.9453 0.5C11.304 0.5 10.7021 0.84161 10.3161 1.33425C9.93009 1.82688 9.71732 2.4274 9.56231 3.06027C9.31611 4.07791 9.24012 5.20702 9.22188 6.22466C7.41944 6.35051 5.78722 6.91147 4.43159 7.77808C3.88143 7.29264 3.21882 7.02295 2.58356 7.03014C1.86015 7.03733 1.17322 7.36455 0.662576 8.03699C-0.313112 9.32072 -0.200649 11.4207 0.930054 12.6685C0.860145 13.0533 0.808473 13.4488 0.808473 13.8479C0.808473 18.0767 4.92399 21.5 10 21.5C15.076 21.5 19.1915 18.0731 19.1915 13.8479C19.1915 13.4488 19.1399 13.0533 19.0699 12.6685C20.2006 11.4207 20.3131 9.32072 19.3374 8.03699C18.8268 7.36455 18.1399 7.03733 17.4164 7.03014C16.7812 7.02295 16.1186 7.29264 15.5684 7.77808C14.2189 6.91507 12.5958 6.35411 10.8024 6.22466C10.8268 5.28613 10.8906 4.31164 11.0699 3.57808C11.1824 3.11781 11.3161 2.78339 11.459 2.6C11.6018 2.41661 11.7052 2.3411 11.9453 2.3411C12.4651 2.3411 12.5319 2.51729 12.845 2.94521C13.0031 3.16096 13.1854 3.43065 13.4772 3.69315C13.769 3.95565 14.2006 4.18219 14.6687 4.18219V2.3411C14.538 2.3411 14.5137 2.3375 14.4256 2.25479C14.3374 2.17209 14.2158 1.98151 14.0365 1.73699C13.6778 1.24435 12.9818 0.5 11.9453 0.5ZM17.0031 0.672603C15.7933 0.672603 14.8146 1.83048 14.8146 3.26164C14.8146 4.69281 15.7933 5.85069 17.0031 5.85069C18.2128 5.85069 19.1915 4.69281 19.1915 3.26164C19.1915 1.83048 18.2128 0.672603 17.0031 0.672603ZM17.0031 1.59315C17.7812 1.59315 18.4134 2.3411 18.4134 3.26164C18.4134 4.18219 17.7812 4.93014 17.0031 4.93014C16.225 4.93014 15.5927 4.18219 15.5927 3.26164C15.5927 2.3411 16.225 1.59315 17.0031 1.59315ZM10 7.66301C14.307 7.66301 17.9514 10.5002 17.9514 13.8479C17.9514 17.1993 14.307 20.0329 10 20.0329C5.69299 20.0329 2.0486 17.1993 2.0486 13.8479C2.0486 10.5002 5.69299 7.66301 10 7.66301ZM2.60787 8.49726C2.82368 8.50086 3.0486 8.55839 3.26441 8.66986C2.48325 9.37106 1.86319 10.1765 1.44069 11.0863C1.1489 10.3743 1.22793 9.48613 1.58659 9.01507C1.84799 8.66986 2.20969 8.49366 2.60787 8.49726ZM17.3921 8.49726C17.7903 8.49366 18.152 8.66986 18.4134 9.01507C18.7721 9.48613 18.8511 10.3743 18.5593 11.0863C18.1368 10.1765 17.5167 9.37106 16.7356 8.66986C16.9514 8.55839 17.1763 8.50086 17.3921 8.49726ZM6.88753 10.7986C6.10941 10.7986 5.47719 11.5466 5.47719 12.4671C5.47719 13.3877 6.10941 14.1356 6.88753 14.1356C7.66564 14.1356 8.29786 13.3877 8.29786 12.4671C8.29786 11.5466 7.66564 10.7986 6.88753 10.7986ZM13.1125 10.7986C12.3344 10.7986 11.7021 11.5466 11.7021 12.4671C11.7021 13.3877 12.3344 14.1356 13.1125 14.1356C13.8906 14.1356 14.5228 13.3877 14.5228 12.4671C14.5228 11.5466 13.8906 10.7986 13.1125 10.7986ZM6.13372 16.4658C6.62917 17.6776 8.16109 18.8534 10 18.8534C11.8389 18.8534 13.3952 17.6776 13.8906 16.4658C12.9909 17.1526 11.5714 17.6164 10 17.6164C8.42857 17.6164 7.03342 17.1526 6.13372 16.4658Z" fill="#030A1A"/></g></symbol><symbol id="rubble" viewBox="0 0 14 20"><g fill="none"><path fill-rule="evenodd" clip-rule="evenodd" d="M1.86667 13.4864V8.09524H4.66667V13.4864H9.8V16.3435H4.66667V20H1.86667V16.3435H0V13.4864H1.86667Z" fill="#102654"/><path fill-rule="evenodd" clip-rule="evenodd" d="M8.63333 2.85714H4.66667V8.09524H8.63333C10.0509 8.09524 11.2 6.92265 11.2 5.47619C11.2 4.02973 10.0509 2.85714 8.63333 2.85714ZM1.86667 0V10.9524H8.63333C11.5973 10.9524 14 8.50061 14 5.47619C14 2.45177 11.5973 0 8.63333 0H1.86667Z" fill="#102654"/><path d="M1.86667 8.09524H0V10.9524H1.86667V8.09524Z" fill="#102654"/></g></symbol><symbol id="video-button" viewBox="0 0 100 100"><g fill="none"><circle cx="50" cy="50" r="49" stroke="url(#paint0_linear_1_293)" stroke-opacity="0.2" stroke-width="2"/><circle cx="50" cy="50" r="36" fill="url(#paint1_linear_1_293)"/><path d="M59 49.5L46.25 56.8612L46.25 42.1388L59 49.5Z" fill="white"/></g></symbol><symbol id="vk" viewBox="0 0 22 12"><g fill="none"><path d="M21.8039 10.7032C21.7448 10.6086 21.379 9.84878 19.6189 8.28709C17.7762 6.65178 18.0238 6.91732 20.2432 4.0897C21.5949 2.36763 22.1353 1.31598 21.9662 0.866405C21.8053 0.437859 20.8111 0.550911 20.8111 0.550911L17.5053 0.569315C17.5053 0.569315 17.2606 0.537766 17.0777 0.641616C16.9003 0.744151 16.7862 0.980772 16.7862 0.980772C16.7862 0.980772 16.2623 2.31373 15.5637 3.44688C14.091 5.83806 13.501 5.96426 13.2604 5.81572C12.7007 5.46999 12.841 4.42491 12.841 3.6835C12.841 1.36594 13.2082 0.399737 12.1246 0.149971C11.7643 0.0671538 11.5003 0.0119424 10.5803 0.00274048C9.4005 -0.00909055 8.4008 0.00668415 7.83563 0.27091C7.45885 0.447061 7.16871 0.840114 7.3461 0.862462C7.56474 0.890068 8.05977 0.989974 8.32242 1.33176C8.66207 1.77214 8.64969 2.76331 8.64969 2.76331C8.64969 2.76331 8.84496 5.49102 8.19453 5.83018C7.74763 6.06285 7.13571 5.5883 5.82248 3.41796C5.15006 2.30716 4.64127 1.07805 4.64127 1.07805C4.64127 1.07805 4.54364 0.849316 4.369 0.727062C4.15724 0.578517 3.86022 0.531193 3.86022 0.531193L0.716735 0.549597C0.716735 0.549597 0.245075 0.562743 0.0718122 0.758612C-0.0821991 0.933448 0.0594363 1.29364 0.0594363 1.29364C0.0594363 1.29364 2.52087 6.79769 5.30682 9.57272C7.86313 12.1164 10.7646 11.9494 10.7646 11.9494H12.0792C12.0792 11.9494 12.4766 11.9074 12.6787 11.6984C12.8658 11.5064 12.8589 11.1463 12.8589 11.1463C12.8589 11.1463 12.8327 9.45967 13.6523 9.21122C14.4595 8.96671 15.4963 10.8413 16.595 11.563C17.4256 12.1085 18.0568 11.9889 18.0568 11.9889L20.9953 11.9494C20.9953 11.9494 22.5327 11.8587 21.8039 10.7032Z" fill="#030A1A"/></g></symbol></svg>