<svg xmlns="http://www.w3.org/2000/svg" xmlns:xlink="http://www.w3.org/1999/xlink"><defs><linearGradient id="paint0_linear_82_466" x1="19.774" y1="3.00672e-05" x2="105.785" y2="10.6444" gradientUnits="userSpaceOnUse"><stop stop-color="#ED0233"/><stop offset="1" stop-color="#003EB7"/></linearGradient><linearGradient id="paint1_linear_82_466" x1="28.2373" y1="14" x2="90.1653" y2="21.664" gradientUnits="userSpaceOnUse"><stop stop-color="#ED0233"/><stop offset="1" stop-color="#003EB7"/></linearGradient></defs><symbol id="logotype-map" viewBox="0 0 164 67"><g fill="none"><path d="M0 0H164V67H0V0Z" fill="#102654"/><path d="M27.7847 44.8115C26.5887 44.8115 25.5514 44.623 24.6727 44.2459C23.794 43.8689 23.1228 43.2027 22.659 42.2475C22.2197 41.2923 22 39.9475 22 38.2131V36.9311C22.5858 36.9311 23.1838 36.9311 23.794 36.9311C24.4042 36.9311 25.0022 36.9311 25.588 36.9311V38.5148C25.588 39.5705 25.6856 40.3874 25.8809 40.9656C26.0762 41.5437 26.3447 41.9459 26.6864 42.1721C27.0281 42.3732 27.4186 42.4738 27.858 42.4738C28.5658 42.4738 29.1272 42.235 29.5421 41.7574C29.9815 41.2546 30.2011 40.3246 30.2011 38.9672C30.2011 37.9617 30.0547 37.2077 29.7618 36.7049C29.4689 36.2022 29.0051 35.8 28.3705 35.4984C27.7603 35.1716 26.9671 34.8071 25.9907 34.4049C25.1853 34.0279 24.4896 33.588 23.9038 33.0852C23.318 32.5825 22.8787 31.9415 22.5858 31.1623C22.2929 30.3831 22.1464 29.4153 22.1464 28.259C22.1464 26.8514 22.3173 25.7076 22.659 24.8279C23.0251 23.923 23.6353 23.2694 24.4896 22.8672C25.3439 22.4399 26.4911 22.2262 27.9312 22.2262C29.7862 22.2262 31.2019 22.6661 32.1782 23.5459C33.1545 24.4005 33.6427 25.6574 33.6427 27.3164V29.918C33.0813 29.918 32.5077 29.918 31.9219 29.918C31.3605 29.918 30.7869 29.918 30.2011 29.918V28.3721C30.2011 27.2158 30.0181 26.3863 29.652 25.8836C29.3102 25.3557 28.7489 25.0918 27.9678 25.0918C27.1623 25.0918 26.5765 25.3432 26.2104 25.8459C25.8687 26.3235 25.6978 27.0902 25.6978 28.1459C25.6978 29.0508 25.8687 29.7546 26.2104 30.2574C26.5521 30.735 26.9915 31.112 27.5284 31.3885C28.0898 31.665 28.6634 31.9164 29.2492 32.1426C30.3476 32.5699 31.2385 33.0098 31.9219 33.4623C32.6053 33.9148 33.1057 34.518 33.423 35.2721C33.7403 36.0262 33.899 37.0945 33.899 38.4771C33.899 40.0607 33.6427 41.3175 33.1301 42.2475C32.642 43.1525 31.9341 43.806 31.0066 44.2082C30.1035 44.6104 29.0295 44.8115 27.7847 44.8115Z" fill="white"/><path d="M43.1908 45C42.3609 45 41.592 44.9372 40.8842 44.8115C40.1763 44.6858 39.5661 44.4344 39.0536 44.0574C38.541 43.6803 38.1383 43.1148 37.8454 42.3607C37.5525 41.6066 37.406 40.5885 37.406 39.3066V22.2639H40.9208V40.2492C40.9208 40.9279 41.0184 41.4557 41.2137 41.8328C41.4334 42.1847 41.7141 42.4235 42.0558 42.5492C42.3975 42.6749 42.7758 42.7377 43.1908 42.7377C43.6057 42.7377 43.984 42.6749 44.3257 42.5492C44.6674 42.4235 44.9359 42.1847 45.1312 41.8328C45.3509 41.4557 45.4607 40.9279 45.4607 40.2492V22.2639H48.9389V39.2689C48.9389 40.5508 48.7924 41.5814 48.4995 42.3607C48.231 43.1148 47.8405 43.6803 47.3279 44.0574C46.8154 44.4344 46.2052 44.6858 45.4973 44.8115C44.7895 44.9372 44.0206 45 43.1908 45Z" fill="white"/><path d="M53.2648 44.5475V22.2639H60.5873C61.9541 22.2639 63.0037 22.5781 63.7359 23.2066C64.4682 23.835 64.8343 24.765 64.8343 25.9967V29.9557C64.8343 30.9109 64.7123 31.8033 64.4682 32.6328C64.2485 33.4372 63.8092 34.0907 63.1501 34.5934C62.5155 35.0962 61.588 35.3475 60.3676 35.3475H56.9261V44.5475H53.2648ZM56.9261 33.3115H59.1594C59.8917 33.3115 60.4408 33.0224 60.807 32.4443C61.1731 31.841 61.3561 30.8732 61.3561 29.541V27.5426C61.3561 26.3612 61.1975 25.5191 60.8802 25.0164C60.5629 24.5137 60.1235 24.2623 59.5621 24.2623H56.9261V33.3115Z" fill="white"/><path d="M68.2987 44.5475V22.2639H78.0376V24.8279H71.96V31.577H76.9758V34.4049H71.96V42.059H78.0376V44.5475H68.2987Z" fill="white"/><path d="M81.3661 44.5475V22.2639H88.835C90.2019 22.2639 91.2515 22.5781 91.9837 23.2066C92.7403 23.835 93.1187 24.765 93.1187 25.9967V29.541C93.1187 30.7727 92.7892 31.7781 92.1301 32.5574C91.4711 33.3115 90.4948 33.7262 89.2012 33.8016C90.031 33.8771 90.6168 34.1536 90.9585 34.6311C91.3247 35.1087 91.6542 35.8503 91.9471 36.8557L94.034 44.5475H90.1531L88.4323 37.1197C88.2615 36.4913 88.0662 35.9383 87.8465 35.4607C87.6268 34.9831 87.2729 34.7443 86.7848 34.7443H84.9908V44.5475H81.3661ZM84.9908 32.218H87.3339C88.1882 32.218 88.7862 31.9918 89.1279 31.5393C89.4941 31.0869 89.6771 30.3956 89.6771 29.4656V26.6377C89.6771 25.8082 89.5063 25.2049 89.1646 24.8279C88.8472 24.4508 88.3469 24.2623 87.6635 24.2623H84.9908V32.218Z" fill="white"/><path d="M101.869 44.9623C101.039 44.9623 100.258 44.824 99.5255 44.5475C98.7933 44.2962 98.1953 43.7809 97.7315 43.0016C97.2922 42.1973 97.0725 41.0033 97.0725 39.4197V26.9771C97.0725 25.6197 97.3166 24.5891 97.8048 23.8852C98.2929 23.1563 98.9763 22.6661 99.855 22.4148C100.734 22.1383 101.747 22 102.894 22C104.041 22 105.054 22.1383 105.933 22.4148C106.811 22.6913 107.495 23.194 107.983 23.923C108.496 24.6268 108.752 25.6448 108.752 26.9771V29.9934H105.347V26.8262C105.347 26.0721 105.237 25.5066 105.017 25.1295C104.822 24.7525 104.541 24.5011 104.175 24.3754C103.834 24.2497 103.419 24.1869 102.93 24.1869C102.491 24.1869 102.088 24.2497 101.722 24.3754C101.356 24.5011 101.063 24.7525 100.844 25.1295C100.648 25.5066 100.551 26.0721 100.551 26.8262V40.2115C100.551 40.9656 100.648 41.5311 100.844 41.9082C101.063 42.2852 101.356 42.5366 101.722 42.6623C102.088 42.788 102.491 42.8508 102.93 42.8508C103.638 42.8508 104.212 42.6372 104.651 42.2098C105.115 41.7574 105.347 41.0913 105.347 40.2115V35.6869H103.187V33.6131H108.752V44.5475H106.116L105.933 42.6623C105.884 42.7628 105.823 42.876 105.75 43.0016C105.676 43.1022 105.615 43.1902 105.567 43.2656C105.274 43.718 104.834 44.1202 104.249 44.4721C103.687 44.7989 102.894 44.9623 101.869 44.9623Z" fill="white"/><path d="M115.393 44.5475V34.9705L111.366 22.2639H114.844L117.114 29.8803L117.297 31.0492L117.516 29.8803L119.896 22.2639H123.155L118.908 35.159V44.5475H115.393Z" fill="white"/><path d="M126.11 44.5475V22.2639H130.431L134.055 38.1L137.716 22.2639H142V44.5475H138.888V27.3541L135.263 44.5475H132.847L129.222 27.3541V44.5475H126.11Z" fill="white"/></g></symbol><symbol id="logotype" viewBox="0 0 119 23"><g fill="none"><path d="M5.768 22.252C4.592 22.252 3.572 22.072 2.708 21.712C1.844 21.352 1.184 20.716 0.728 19.804C0.296 18.892 0.08 17.608 0.08 15.952V14.728C0.656 14.728 1.244 14.728 1.844 14.728C2.444 14.728 3.032 14.728 3.608 14.728V16.24C3.608 17.248 3.704 18.028 3.896 18.58C4.088 19.132 4.352 19.516 4.688 19.732C5.024 19.924 5.408 20.02 5.84 20.02C6.536 20.02 7.088 19.792 7.496 19.336C7.928 18.856 8.144 17.968 8.144 16.672C8.144 15.712 8 14.992 7.712 14.512C7.424 14.032 6.968 13.648 6.344 13.36C5.744 13.048 4.964 12.7 4.004 12.316C3.212 11.956 2.528 11.536 1.952 11.056C1.376 10.576 0.944 9.964 0.656 9.22C0.368 8.476 0.224 7.552 0.224 6.448C0.224 5.104 0.392 4.012 0.728 3.172C1.088 2.308 1.688 1.684 2.528 1.3C3.368 0.891999 4.496 0.688 5.912 0.688C7.736 0.688 9.128 1.108 10.088 1.948C11.048 2.764 11.528 3.964 11.528 5.548V8.032C10.976 8.032 10.412 8.032 9.836 8.032C9.284 8.032 8.72 8.032 8.144 8.032V6.556C8.144 5.452 7.964 4.66 7.604 4.18C7.268 3.676 6.716 3.424 5.948 3.424C5.156 3.424 4.58 3.664 4.22 4.144C3.884 4.6 3.716 5.332 3.716 6.34C3.716 7.204 3.884 7.876 4.22 8.356C4.556 8.812 4.988 9.172 5.516 9.436C6.068 9.7 6.632 9.94 7.208 10.156C8.288 10.564 9.164 10.984 9.836 11.416C10.508 11.848 11 12.424 11.312 13.144C11.624 13.864 11.78 14.884 11.78 16.204C11.78 17.716 11.528 18.916 11.024 19.804C10.544 20.668 9.848 21.292 8.936 21.676C8.048 22.06 6.992 22.252 5.768 22.252ZM20.9164 22.432C20.1004 22.432 19.3444 22.372 18.6484 22.252C17.9524 22.132 17.3524 21.892 16.8484 21.532C16.3444 21.172 15.9484 20.632 15.6604 19.912C15.3724 19.192 15.2284 18.22 15.2284 16.996V0.723999H18.6844V17.896C18.6844 18.544 18.7804 19.048 18.9724 19.408C19.1884 19.744 19.4644 19.972 19.8004 20.092C20.1364 20.212 20.5084 20.272 20.9164 20.272C21.3244 20.272 21.6964 20.212 22.0324 20.092C22.3684 19.972 22.6324 19.744 22.8244 19.408C23.0404 19.048 23.1484 18.544 23.1484 17.896V0.723999H26.5684V16.96C26.5684 18.184 26.4244 19.168 26.1364 19.912C25.8724 20.632 25.4884 21.172 24.9844 21.532C24.4804 21.892 23.8804 22.132 23.1844 22.252C22.4884 22.372 21.7324 22.432 20.9164 22.432ZM30.822 22V0.723999H38.022C39.366 0.723999 40.398 1.024 41.118 1.624C41.838 2.224 42.198 3.112 42.198 4.288V8.068C42.198 8.98 42.078 9.832 41.838 10.624C41.622 11.392 41.19 12.016 40.542 12.496C39.918 12.976 39.006 13.216 37.806 13.216H34.422V22H30.822ZM34.422 11.272H36.618C37.338 11.272 37.878 10.996 38.238 10.444C38.598 9.868 38.778 8.944 38.778 7.672V5.764C38.778 4.636 38.622 3.832 38.31 3.352C37.998 2.872 37.566 2.632 37.014 2.632H34.422V11.272ZM45.6045 22V0.723999H55.1805V3.172H49.2045V9.616H54.1365V12.316H49.2045V19.624H55.1805V22H45.6045ZM58.4534 22V0.723999H65.7974C67.1414 0.723999 68.1734 1.024 68.8934 1.624C69.6374 2.224 70.0094 3.112 70.0094 4.288V7.672C70.0094 8.848 69.6854 9.808 69.0374 10.552C68.3894 11.272 67.4294 11.668 66.1574 11.74C66.9734 11.812 67.5494 12.076 67.8854 12.532C68.2454 12.988 68.5694 13.696 68.8574 14.656L70.9094 22H67.0934L65.4014 14.908C65.2334 14.308 65.0414 13.78 64.8254 13.324C64.6094 12.868 64.2614 12.64 63.7814 12.64H62.0174V22H58.4534ZM62.0174 10.228H64.3214C65.1614 10.228 65.7494 10.012 66.0854 9.58C66.4454 9.148 66.6254 8.488 66.6254 7.6V4.9C66.6254 4.108 66.4574 3.532 66.1214 3.172C65.8094 2.812 65.3174 2.632 64.6454 2.632H62.0174V10.228ZM78.6132 22.396C77.7972 22.396 77.0292 22.264 76.3092 22C75.5892 21.76 75.0012 21.268 74.5452 20.524C74.1132 19.756 73.8972 18.616 73.8972 17.104V5.224C73.8972 3.928 74.1372 2.944 74.6172 2.272C75.0972 1.576 75.7692 1.108 76.6332 0.868C77.4972 0.603999 78.4932 0.471998 79.6212 0.471998C80.7492 0.471998 81.7452 0.603999 82.6092 0.868C83.4732 1.132 84.1452 1.612 84.6252 2.308C85.1292 2.98 85.3812 3.952 85.3812 5.224V8.104H82.0332V5.08C82.0332 4.36 81.9252 3.82 81.7092 3.46C81.5172 3.1 81.2412 2.86 80.8812 2.74C80.5452 2.62 80.1372 2.56 79.6572 2.56C79.2252 2.56 78.8292 2.62 78.4692 2.74C78.1092 2.86 77.8212 3.1 77.6052 3.46C77.4132 3.82 77.3172 4.36 77.3172 5.08V17.86C77.3172 18.58 77.4132 19.12 77.6052 19.48C77.8212 19.84 78.1092 20.08 78.4692 20.2C78.8292 20.32 79.2252 20.38 79.6572 20.38C80.3532 20.38 80.9172 20.176 81.3492 19.768C81.8052 19.336 82.0332 18.7 82.0332 17.86V13.54H79.9092V11.56H85.3812V22H82.7892L82.6092 20.2C82.5612 20.296 82.5012 20.404 82.4292 20.524C82.3572 20.62 82.2972 20.704 82.2492 20.776C81.9612 21.208 81.5292 21.592 80.9532 21.928C80.4012 22.24 79.6212 22.396 78.6132 22.396ZM91.9112 22V12.856L87.9512 0.723999H91.3712L93.6032 7.996L93.7832 9.112L93.9992 7.996L96.3392 0.723999H99.5432L95.3672 13.036V22H91.9112ZM102.449 22V0.723999H106.697L110.261 15.844L113.861 0.723999H118.073V22H115.013V5.584L111.449 22H109.073L105.509 5.584V22H102.449Z" fill="white"/></g></symbol><symbol id="minus" viewBox="0 0 18 2"><g fill="none"><path d="M18 1H9H0" stroke="white"/></g></symbol><symbol id="not-needed-in-sprite" viewBox="0 0 16 16"><g fill="none"><circle cx="8" cy="8" r="8" fill="#081597"/></g></symbol><symbol id="ok" viewBox="0 0 22 22"><path d="M11 3.32798C12.3229 3.32798 13.3988 4.38262 13.3988 5.67944C13.3988 6.97235 12.3229 8.02699 11 8.02699C9.67708 8.02699 8.60121 6.97235 8.60121 5.67944C8.60121 4.38262 9.67708 3.32798 11 3.32798ZM11 11.355C14.1957 11.355 16.7938 8.8082 16.7938 5.67944C16.7938 2.54676 14.1957 0 11 0C7.80427 0 5.21023 2.54676 5.21023 5.67944C5.21023 8.8082 7.80427 11.355 11 11.355ZM13.343 15.9876C14.5225 15.722 15.6581 15.2649 16.7061 14.6204C17.499 14.1322 17.7381 13.1049 17.24 12.3276C16.738 11.5464 15.694 11.312 14.897 11.8042C12.5261 13.265 9.47386 13.265 7.09898 11.8042C6.30603 11.312 5.25805 11.5464 4.75996 12.3276C4.26188 13.1049 4.50096 14.1322 5.29391 14.6204C6.34189 15.2649 7.47753 15.722 8.657 15.9876L5.41744 19.1593C4.75598 19.8077 4.75598 20.8624 5.41744 21.5108C5.75215 21.835 6.1825 21.999 6.61683 21.999C7.05116 21.999 7.4855 21.835 7.82021 21.5108L11 18.3937L14.1838 21.5108C14.8452 22.1631 15.9171 22.1631 16.5826 21.5108C17.244 20.8624 17.244 19.8077 16.5826 19.1593L13.343 15.9876Z"/></symbol><symbol id="plus" viewBox="0 0 20 20"><g fill="none"><path d="M10 0V10M10 20V10M10 10H20M10 10H0" stroke="#102654"/></g></symbol><symbol id="reddit" viewBox="0 0 22 22"><path d="M12.9453 0.5C12.304 0.5 11.7021 0.84161 11.3161 1.33425C10.9301 1.82688 10.7173 2.4274 10.5623 3.06027C10.3161 4.07791 10.2401 5.20702 10.2219 6.22466C8.41944 6.35051 6.78722 6.91147 5.43159 7.77808C4.88143 7.29264 4.21882 7.02295 3.58356 7.03014C2.86015 7.03733 2.17322 7.36455 1.66258 8.03699C0.686888 9.32072 0.799351 11.4207 1.93005 12.6685C1.86015 13.0533 1.80847 13.4488 1.80847 13.8479C1.80847 18.0767 5.92399 21.5 11 21.5C16.076 21.5 20.1915 18.0731 20.1915 13.8479C20.1915 13.4488 20.1399 13.0533 20.0699 12.6685C21.2006 11.4207 21.3131 9.32072 20.3374 8.03699C19.8268 7.36455 19.1399 7.03733 18.4164 7.03014C17.7812 7.02295 17.1186 7.29264 16.5684 7.77808C15.2189 6.91507 13.5958 6.35411 11.8024 6.22466C11.8268 5.28613 11.8906 4.31164 12.0699 3.57808C12.1824 3.11781 12.3161 2.78339 12.459 2.6C12.6018 2.41661 12.7052 2.3411 12.9453 2.3411C13.4651 2.3411 13.5319 2.51729 13.845 2.94521C14.0031 3.16096 14.1854 3.43065 14.4772 3.69315C14.769 3.95565 15.2006 4.18219 15.6687 4.18219V2.3411C15.538 2.3411 15.5137 2.3375 15.4256 2.25479C15.3374 2.17209 15.2158 1.98151 15.0365 1.73699C14.6778 1.24435 13.9818 0.5 12.9453 0.5ZM18.0031 0.672603C16.7933 0.672603 15.8146 1.83048 15.8146 3.26164C15.8146 4.69281 16.7933 5.85069 18.0031 5.85069C19.2128 5.85069 20.1915 4.69281 20.1915 3.26164C20.1915 1.83048 19.2128 0.672603 18.0031 0.672603ZM18.0031 1.59315C18.7812 1.59315 19.4134 2.3411 19.4134 3.26164C19.4134 4.18219 18.7812 4.93014 18.0031 4.93014C17.225 4.93014 16.5927 4.18219 16.5927 3.26164C16.5927 2.3411 17.225 1.59315 18.0031 1.59315ZM11 7.66301C15.307 7.66301 18.9514 10.5002 18.9514 13.8479C18.9514 17.1993 15.307 20.0329 11 20.0329C6.69299 20.0329 3.0486 17.1993 3.0486 13.8479C3.0486 10.5002 6.69299 7.66301 11 7.66301ZM3.60787 8.49726C3.82368 8.50086 4.0486 8.55839 4.26441 8.66986C3.48325 9.37106 2.86319 10.1765 2.44069 11.0863C2.1489 10.3743 2.22793 9.48613 2.58659 9.01507C2.84799 8.66986 3.20969 8.49366 3.60787 8.49726ZM18.3921 8.49726C18.7903 8.49366 19.152 8.66986 19.4134 9.01507C19.7721 9.48613 19.8511 10.3743 19.5593 11.0863C19.1368 10.1765 18.5167 9.37106 17.7356 8.66986C17.9514 8.55839 18.1763 8.50086 18.3921 8.49726ZM7.88753 10.7986C7.10941 10.7986 6.47719 11.5466 6.47719 12.4671C6.47719 13.3877 7.10941 14.1356 7.88753 14.1356C8.66564 14.1356 9.29786 13.3877 9.29786 12.4671C9.29786 11.5466 8.66564 10.7986 7.88753 10.7986ZM14.1125 10.7986C13.3344 10.7986 12.7021 11.5466 12.7021 12.4671C12.7021 13.3877 13.3344 14.1356 14.1125 14.1356C14.8906 14.1356 15.5228 13.3877 15.5228 12.4671C15.5228 11.5466 14.8906 10.7986 14.1125 10.7986ZM7.13372 16.4658C7.62917 17.6776 9.16109 18.8534 11 18.8534C12.8389 18.8534 14.3952 17.6776 14.8906 16.4658C13.9909 17.1526 12.5714 17.6164 11 17.6164C9.42857 17.6164 8.03342 17.1526 7.13372 16.4658Z"/></symbol><symbol id="rubble" viewBox="0 0 14 20"><g fill="none"><path fill-rule="evenodd" clip-rule="evenodd" d="M1.86667 13.4864V8.09524H4.66667V13.4864H9.8V16.3435H4.66667V20H1.86667V16.3435H0V13.4864H1.86667Z" fill="#102654"/><path fill-rule="evenodd" clip-rule="evenodd" d="M8.63333 2.85714H4.66667V8.09524H8.63333C10.0509 8.09524 11.2 6.92265 11.2 5.47619C11.2 4.02973 10.0509 2.85714 8.63333 2.85714ZM1.86667 0V10.9524H8.63333C11.5973 10.9524 14 8.50061 14 5.47619C14 2.45177 11.5973 0 8.63333 0H1.86667Z" fill="#102654"/><path d="M1.86667 8.09524H0V10.9524H1.86667V8.09524Z" fill="#102654"/></g></symbol><symbol id="slider-arrow-next" viewBox="0 0 18 34"><g fill="none"><path d="M1 1L17 17L1 33"/></g></symbol><symbol id="slider-arrow-prev" viewBox="0 0 18 34"><g fill="none"><path d="M17 33L0.999999 17L17 0.999998"/></g></symbol><symbol id="video-button-active" viewBox="0 0 100 100"><g fill="none"><circle cx="50" cy="50" r="49" stroke="#102654" stroke-width="2"/><circle cx="50" cy="50" r="29" fill="white"/><path d="M59 49.5L46.25 56.8612L46.25 42.1388L59 49.5Z" fill="#102654"/></g></symbol><symbol id="video-button-default" viewBox="0 0 100 100"><g fill="none"><circle opacity="0.2" cx="50" cy="50" r="49" stroke="url(#paint0_linear_82_466)" stroke-width="2"/><circle cx="50" cy="50" r="36" fill="url(#paint1_linear_82_466)"/><path d="M59 49.5L46.25 56.8612L46.25 42.1388L59 49.5Z" fill="white"/></g></symbol><symbol id="video-button-disabled" viewBox="0 0 100 100"><g fill="none"><g opacity="0.4"><circle cx="50" cy="50" r="49" stroke="#102654" stroke-width="2"/><circle cx="50" cy="50" r="36" fill="white"/><path d="M59 49.5L46.25 56.8612L46.25 42.1388L59 49.5Z" fill="#102654"/></g></g></symbol><symbol id="video-button-hover-focus" viewBox="0 0 100 100"><g fill="none"><circle cx="50" cy="50" r="49" stroke="#102654" stroke-width="2"/><circle cx="50" cy="50" r="36" fill="white"/><path d="M59 49.5L46.25 56.8612L46.25 42.1388L59 49.5Z" fill="#102654"/></g></symbol><symbol id="video-button" viewBox="0 0 14 16"><path d="M13.5 8L0.5 15.5L0.500001 0.5L13.5 8Z"/></symbol><symbol id="vk" viewBox="0 0 22 22"><path d="M21.8039 15.7032C21.7448 15.6086 21.379 14.8488 19.6189 13.2871C17.7762 11.6518 18.0238 11.9173 20.2432 9.0897C21.5949 7.36763 22.1353 6.31598 21.9662 5.86641C21.8053 5.43786 20.8111 5.55091 20.8111 5.55091L17.5053 5.56932C17.5053 5.56932 17.2606 5.53777 17.0777 5.64162C16.9003 5.74415 16.7862 5.98077 16.7862 5.98077C16.7862 5.98077 16.2623 7.31373 15.5637 8.44688C14.091 10.8381 13.501 10.9643 13.2604 10.8157C12.7007 10.47 12.841 9.42491 12.841 8.6835C12.841 6.36594 13.2082 5.39974 12.1246 5.14997C11.7643 5.06715 11.5003 5.01194 10.5803 5.00274C9.4005 4.99091 8.4008 5.00668 7.83563 5.27091C7.45885 5.44706 7.16871 5.84011 7.3461 5.86246C7.56474 5.89007 8.05977 5.98997 8.32242 6.33176C8.66207 6.77214 8.64969 7.76331 8.64969 7.76331C8.64969 7.76331 8.84496 10.491 8.19453 10.8302C7.74763 11.0629 7.13571 10.5883 5.82248 8.41796C5.15006 7.30716 4.64127 6.07805 4.64127 6.07805C4.64127 6.07805 4.54364 5.84932 4.369 5.72706C4.15724 5.57852 3.86022 5.53119 3.86022 5.53119L0.716735 5.5496C0.716735 5.5496 0.245075 5.56274 0.0718122 5.75861C-0.0821991 5.93345 0.0594363 6.29364 0.0594363 6.29364C0.0594363 6.29364 2.52087 11.7977 5.30682 14.5727C7.86313 17.1164 10.7646 16.9494 10.7646 16.9494H12.0792C12.0792 16.9494 12.4766 16.9074 12.6787 16.6984C12.8658 16.5064 12.8589 16.1463 12.8589 16.1463C12.8589 16.1463 12.8327 14.4597 13.6523 14.2112C14.4595 13.9667 15.4963 15.8413 16.595 16.563C17.4256 17.1085 18.0568 16.9889 18.0568 16.9889L20.9953 16.9494C20.9953 16.9494 22.5327 16.8587 21.8039 15.7032Z"/></symbol></svg>